<svg width="32" height="32" viewBox="0 0 32 32" fill="none" xmlns="http://www.w3.org/2000/svg">
<path d="M31.6812 9.60009C31.6812 9.60009 31.3688 7.39384 30.4062 6.42509C29.1875 5.15009 27.825 5.14384 27.2 5.06884C22.725 4.74384 16.0063 4.74384 16.0063 4.74384H15.9937C15.9937 4.74384 9.275 4.74384 4.8 5.06884C4.175 5.14384 2.8125 5.15009 1.59375 6.42509C0.63125 7.39384 0.325 9.60009 0.325 9.60009C0.325 9.60009 0 12.1938 0 14.7813V17.2063C0 19.7938 0.31875 22.3876 0.31875 22.3876C0.31875 22.3876 0.63125 24.5938 1.5875 25.5626C2.80625 26.8376 4.40625 26.7938 5.11875 26.9313C7.68125 27.1751 16 27.2501 16 27.2501C16 27.2501 22.725 27.2376 27.2 26.9188C27.825 26.8438 29.1875 26.8376 30.4062 25.5626C31.3688 24.5938 31.6812 22.3876 31.6812 22.3876C31.6812 22.3876 32 19.8001 32 17.2063V14.7813C32 12.1938 31.6812 9.60009 31.6812 9.60009ZM12.6938 20.1501V11.1563L21.3375 15.6688L12.6938 20.1501Z" fill="#676767"/>
</svg>
